<?xml version="1.0" standalone="no"?>
<svg xmlns="http://www.w3.org/2000/svg" width="512" height="512">
    <rect width="512" height="512" opacity="0"></rect>
    <g mask="url(#hms_mask_0)">
        <path d="M256 42.5Q198.14 42.5 148.99 71.17Q99.84 99.84 71.17 148.99Q42.5 198.14 42.5 256Q42.5 313.86 71.17 363.01Q99.84 412.16 148.99 440.83Q198.14 469.5 256 469.5Q313.86 469.5 363.01 440.83Q412.16 412.16 440.83 363.01Q469.5 313.86 469.5 256Q469.5 198.14 440.83 148.99Q412.16 99.84 363.01 71.17Q313.86 42.5 256 42.5Z"
              fill="#666666"></path>
    </g>
    <defs>
        <mask id="hms_mask_0">
            <rect width="512" height="512" fill="#ffffff"></rect>
            <g>
                <path d="M255.49 77.82Q275.97 77.82 294.91 81.15Q313.86 84.48 325.63 91.65Q332.8 96.26 333.06 102.4Q333.31 108.54 323.07 112.9Q312.83 117.25 290.82 117.25L285.7 117.25L253.95 117.25Q248.32 117.25 243.97 120.83Q239.62 124.42 238.08 130.05L237.57 132.1L237.57 169.47Q237.57 176.64 233.47 181.5Q229.38 186.37 222.72 186.37L220.16 186.37L193.02 186.37Q182.27 189.44 178.43 202.75Q174.59 216.06 189.95 227.33Q205.31 238.59 247.3 239.1L253.44 239.1Q264.7 239.1 272.13 240.38Q279.55 241.66 287.74 246.78Q300.03 253.95 303.62 275.97Q307.2 297.98 296.45 339.97Q292.35 356.35 284.93 369.66Q277.5 382.98 270.59 390.66Q263.68 398.34 260.61 398.85Q250.88 400.9 246.02 398.59Q241.15 396.29 239.36 390.91Q237.57 385.54 235.52 374.27L235.52 373.76Q233.47 361.47 230.14 352.51Q226.82 343.55 219.14 336.9Q214.02 332.29 199.68 322.05Q186.88 313.34 181.76 307.46Q176.64 301.57 176.64 293.38L176.64 289.79L176.64 271.87Q176.64 265.22 171.78 260.35Q166.91 255.49 160.26 255.49Q132.61 253.95 113.15 248.06Q93.7 242.18 87.04 225.79Q73.73 199.17 99.07 164.1Q124.42 129.02 169.98 103.42Q215.55 77.82 255.49 77.82ZM434.18 254.98Q434.18 286.72 422.91 317.44Q419.84 315.9 417.54 314.37Q415.23 312.83 413.18 310.27Q394.75 292.35 393.47 261.89Q392.19 231.42 421.89 190.98L423.42 191.49Q429.06 204.8 431.62 220.16Q434.18 235.52 434.18 254.98Z"
                      fill="#000000"></path>
            </g>
        </mask>
    </defs>
</svg>