<?xml version="1.0" standalone="no"?>
<svg xmlns="http://www.w3.org/2000/svg" width="512" height="512">
    <rect width="512" height="512" opacity="0"></rect>
    <g>
        <path d="M398.85 205.31L462.34 205.31Q465.41 205.31 467.46 203.01Q469.5 200.7 469.5 197.63Q469.5 194.56 467.46 192.51L406.53 132.1Q404.48 130.05 401.41 130.05Q398.34 130.05 396.03 132.1Q393.73 134.14 393.73 137.22L393.73 173.06L56.83 173.06Q50.18 173.06 45.57 177.66Q40.96 182.27 40.96 188.93Q40.96 195.58 45.57 200.45Q50.18 205.31 56.83 205.31ZM112.64 306.69L49.15 306.69Q46.08 306.69 44.03 308.99Q41.98 311.3 41.98 314.37Q41.98 317.44 44.03 319.49L105.47 379.39Q107.52 381.44 110.59 381.44Q113.66 381.44 115.97 379.39Q118.27 377.34 118.27 374.27L118.27 338.43L455.17 338.43Q461.82 338.43 466.43 333.82Q471.04 329.22 471.04 322.56Q471.04 315.9 466.43 311.3Q461.82 306.69 455.17 306.69Z"
              fill="#fe0000"></path>
    </g>
</svg>