<?xml version="1.0" encoding="UTF-8"?>
<!DOCTYPE svg PUBLIC "-//W3C//DTD SVG 1.1//EN" "http://www.w3.org/Graphics/SVG/1.1/DTD/svg11.dtd">
<svg xmlns="http://www.w3.org/2000/svg" version="1.1" width="512px" height="512px"
     style="shape-rendering:geometricPrecision; text-rendering:geometricPrecision; image-rendering:optimizeQuality; fill-rule:evenodd; clip-rule:evenodd"
     xmlns:xlink="http://www.w3.org/1999/xlink">
    <g>
        <path style="opacity:0.956" fill="#666666"
              d="M 168.5,104.5 C 177.568,104.119 186.568,104.619 195.5,106C 205.104,108.769 211.104,114.935 213.5,124.5C 209.743,134.59 202.743,141.257 192.5,144.5C 188.499,125.662 177.166,118.828 158.5,124C 146.135,130.875 137.635,141.042 133,154.5C 130.803,160.091 128.803,165.758 127,171.5C 122.386,190.072 118.219,208.739 114.5,227.5C 135.498,228.677 156.498,228.677 177.5,227.5C 188.59,226.949 199.59,225.616 210.5,223.5C 216.869,222.596 220.703,225.263 222,231.5C 222.667,238.5 222.667,245.5 222,252.5C 217.241,277.626 212.741,302.792 208.5,328C 209.656,344.094 217.989,349.428 233.5,344C 244.588,338.902 254.588,332.236 263.5,324C 284.501,303.774 303.001,281.607 319,257.5C 323.499,241.506 327.999,225.506 332.5,209.5C 320.18,208.334 307.847,208.167 295.5,209C 291.352,209.661 287.352,210.827 283.5,212.5C 286.096,204.967 290.429,198.134 296.5,192C 299.089,190.803 301.756,189.803 304.5,189C 315.848,188.832 327.181,188.332 338.5,187.5C 341.824,173.526 347.324,160.526 355,148.5C 366.327,138.396 379.493,135.062 394.5,138.5C 384.138,153.916 376.471,170.582 371.5,188.5C 402.518,188.861 433.518,188.361 464.5,187C 469.741,186.273 474.741,184.773 479.5,182.5C 479.719,190.326 477.052,197.159 471.5,203C 468.508,205.11 465.175,206.443 461.5,207C 428.853,208.389 396.186,208.889 363.5,208.5C 355.444,236.061 349.277,264.061 345,292.5C 344.333,301.5 344.333,310.5 345,319.5C 347.73,337.121 357.897,344.288 375.5,341C 393.987,334.838 408.154,323.338 418,306.5C 423.553,314.604 423.887,322.938 419,331.5C 415.917,336.588 412.083,341.088 407.5,345C 394.354,356.407 379.354,364.407 362.5,369C 339.306,372.801 323.806,363.634 316,341.5C 311.75,326.744 310.417,311.744 312,296.5C 294.833,321.667 273.667,342.833 248.5,360C 235.266,368.225 220.933,371.225 205.5,369C 187.111,362.595 178.111,349.595 178.5,330C 178.667,326.5 178.833,323 179,319.5C 184.266,295.341 188.432,271.008 191.5,246.5C 164.541,247.966 137.541,248.632 110.5,248.5C 101.733,293.5 92.9,338.5 84,383.5C 82.969,390.81 82.1356,398.143 81.5,405.5C 81.9451,411.729 83.2784,417.729 85.5,423.5C 80.8523,424.662 76.1857,425.829 71.5,427C 66.1667,427.667 60.8333,427.667 55.5,427C 50.4776,423.113 48.4776,417.947 49.5,411.5C 49.9112,404.121 50.7445,396.788 52,389.5C 61.2513,342.576 70.7513,295.743 80.5,249C 66.4209,247.437 53.4209,250.437 41.5,258C 40.365,258.749 39.365,258.583 38.5,257.5C 39.8437,252.46 41.3437,247.46 43,242.5C 46.4377,233.689 52.9377,229.189 62.5,229C 69.8258,228.5 77.1591,228.334 84.5,228.5C 87.7219,203.278 94.2219,178.945 104,155.5C 118.053,128.933 139.553,111.933 168.5,104.5 Z"/>
    </g>
    <g>
        <path style="opacity:0.916" fill="#666666"
              d="M 271.5,138.5 C 272.376,138.369 273.043,138.702 273.5,139.5C 269.176,152.655 261.843,163.821 251.5,173C 242.723,180.443 233.39,187.109 223.5,193C 218.664,196.017 214.164,195.85 210,192.5C 208.827,184.4 209.66,176.566 212.5,169C 235.051,164.06 254.717,153.894 271.5,138.5 Z"/>
    </g>
</svg>
