<?xml version="1.0" standalone="no"?>
<svg xmlns="http://www.w3.org/2000/svg" width="512" height="512">
    <rect width="512" height="512" opacity="0"></rect>
    <g>
        <path d="M360.45 263.17Q371.71 263.17 382.46 258.82Q393.22 254.46 401.92 245.76L454.14 193.02Q465.41 181.76 469.5 166.66Q473.6 151.55 469.5 136.45Q465.41 121.34 454.14 110.08L401.92 57.34Q390.66 46.08 375.55 42.24Q360.45 38.4 345.34 42.24Q330.24 46.08 318.98 57.34L266.24 110.59Q254.98 121.86 250.88 136.96Q246.78 152.06 250.88 167.17Q254.98 182.27 266.24 193.54L318.98 246.27Q327.17 254.46 337.92 258.82Q348.67 263.17 360.45 263.17ZM360.45 72.19Q365.57 72.19 370.69 74.5Q375.81 76.8 379.39 80.38L432.13 133.12Q439.81 140.8 439.81 151.81Q439.81 162.82 432.13 170.5L379.39 223.23Q371.2 231.42 360.45 231.42Q349.7 231.42 341.5 223.23L288.77 170.5Q281.09 162.82 281.09 151.81Q281.09 140.8 288.77 133.12L341.5 80.38Q349.18 72.19 360.45 72.19ZM397.82 471.55Q413.7 471.55 427.01 463.62Q440.32 455.68 448.26 442.37Q456.19 429.06 456.19 413.18L456.19 338.43Q456.19 322.56 448.26 308.99Q440.32 295.42 427.01 287.49Q413.7 279.55 397.82 279.55L323.07 279.55Q307.2 279.55 293.63 287.49Q280.06 295.42 272.13 308.99Q264.19 322.56 264.19 338.43L264.19 413.18Q264.19 429.06 272.13 442.37Q280.06 455.68 293.63 463.62Q307.2 471.55 323.07 471.55L397.82 471.55ZM397.82 311.81Q408.58 311.81 416.51 319.49Q424.45 327.17 424.45 338.43L424.45 413.18Q424.45 423.94 416.51 431.87Q408.58 439.81 397.82 439.81L323.07 439.81Q311.81 439.81 304.13 431.87Q296.45 423.94 296.45 413.18L296.45 338.43Q296.45 327.17 304.13 319.49Q311.81 311.81 323.07 311.81L397.82 311.81ZM173.57 471.55Q189.44 471.55 203.01 463.62Q216.58 455.68 224.51 442.37Q232.45 429.06 232.45 413.18L232.45 338.43Q232.45 322.56 224.51 308.99Q216.58 295.42 203.01 287.49Q189.44 279.55 173.57 279.55L98.82 279.55Q82.94 279.55 69.63 287.49Q56.32 295.42 48.38 308.99Q40.45 322.56 40.45 338.43L40.45 413.18Q40.45 429.06 48.38 442.37Q56.32 455.68 69.63 463.62Q82.94 471.55 98.82 471.55L173.57 471.55ZM173.57 311.81Q184.32 311.81 192.26 319.49Q200.19 327.17 200.19 338.43L200.19 413.18Q200.19 423.94 192.26 431.87Q184.32 439.81 173.57 439.81L98.82 439.81Q88.06 439.81 80.13 431.87Q72.19 423.94 72.19 413.18L72.19 338.43Q72.19 327.17 80.13 319.49Q88.06 311.81 98.82 311.81L173.57 311.81ZM173.57 247.81Q189.44 247.81 203.01 239.87Q216.58 231.94 224.51 218.37Q232.45 204.8 232.45 188.93L232.45 114.18Q232.45 98.3 224.51 84.99Q216.58 71.68 203.01 63.74Q189.44 55.81 173.57 55.81L98.82 55.81Q82.94 55.81 69.63 63.74Q56.32 71.68 48.38 84.99Q40.45 98.3 40.45 114.18L40.45 188.93Q40.45 204.8 48.38 218.37Q56.32 231.94 69.63 239.87Q82.94 247.81 98.82 247.81L173.57 247.81ZM173.57 87.55Q184.32 87.55 192.26 95.49Q200.19 103.42 200.19 114.18L200.19 188.93Q200.19 200.19 192.26 207.87Q184.32 215.55 173.57 215.55L98.82 215.55Q88.06 215.55 80.13 207.87Q72.19 200.19 72.19 188.93L72.19 114.18Q72.19 103.42 80.13 95.49Q88.06 87.55 98.82 87.55L173.57 87.55Z"
              fill="#fe0000"></path>
    </g>
</svg>